# xmcd CD database file
#
# Track frame offsets:
#	150
#	10754
#	23324
#	40963
#	52528
#	59565
#	72892
#	85141
#	92801
#	101585
#	120287
#	138382
#	151941
#	159778
#	166443
#	175855
#	184532
#	201486
#	211558
#	224250
#
# Disc length: 3153 seconds
#
# Revision: 19
# Processed by: cddbd v1.5PL3 Copyright (c) Steve Scherf et al.
# Submitted via: CDex 1.50
#
DISCID=f50c4f14
DTITLE=Koerner, Ray, and Glover - Blues, Rags and Hollers
DYEAR=1963
DGENRE=Blues
TTITLE0=Linin'
TTITLE1=Ramblin' Blues
TTITLE2=It's All Right
TTITLE3=Hangman
TTITLE4=Ted Mack Rag
TTITLE5=Down To Louisiana
TTITLE6=Creepy John
TTITLE7=Bugger Burns
TTITLE8=Sun's Wail
TTITLE9=Dust My Broom
TTITLE10=One Kind Favor
TTITLE11=Go Down Ol' Hannah
TTITLE12=Good Time Charlie
TTITLE13=Banjo Thing
TTITLE14=Stop That Thing
TTITLE15=Too Bad
TTITLE16=Snaker's Here
TTITLE17=Low Down Rounder
TTITLE18=Jimmy Bell
TTITLE19=Mumblin' Word
EXTD=YEAR: 1963
EXTT0=
EXTT1=
EXTT2=
EXTT3=
EXTT4=
EXTT5=
EXTT6=
EXTT7=
EXTT8=
EXTT9=
EXTT10=
EXTT11=
EXTT12=
EXTT13=
EXTT14=
EXTT15=
EXTT16=
EXTT17=
EXTT18=
EXTT19=
PLAYORDER=
